<svg width="250" height="50" viewBox="0 0 250 50" fill="none" xmlns="http://www.w3.org/2000/svg">
<path d="M27.275 21.4C30.2 21.4 32 17.125 32 14.425C32 12.175 30.875 9.475 28.625 9.475C25.7 9.475 23.9 13.75 23.9 16.45C23.9 18.7 25.025 21.4 27.275 21.4ZM18.725 21.4C20.975 21.4 22.1 18.7 22.1 16.45C22.1 13.525 20.3 9.25 17.375 9.25C15.125 9.25 14 11.95 14 14.2C13.775 17.125 15.575 21.4 18.725 21.4ZM35.375 19.15C32.45 19.15 30.425 23.2 30.425 26.125C30.425 28.15 31.325 30.175 33.35 30.175C36.275 30.175 38.3 26.125 38.3 23.2C38.3 21.175 37.175 19.15 35.375 19.15ZM15.8 26.125C15.8 23.2 13.55 19.15 10.85 19.15C8.82499 19.15 7.92499 21.175 7.92499 23.2C7.92499 26.125 10.175 30.175 12.875 30.175C14.9 30.175 15.8 28.15 15.8 26.125ZM23 25.675C18.5 25.675 12.425 32.875 12.425 37.825C12.425 40.075 14 40.75 15.8 40.75C18.5 40.75 20.525 38.95 23 38.95C25.25 38.95 27.275 40.75 29.75 40.75C31.55 40.75 33.575 40.3 33.575 37.825C33.575 32.875 27.5 25.675 23 25.675Z" fill="#FB7070"/>
<path d="M55.26 12.28L52.26 11.76V9.28H58.3C58.86 9.28 59.7267 9.25333 60.9 9.2C62.4467 9.09333 63.8467 9.04 65.1 9.04C67.8733 9.04 70.06 9.38667 71.66 10.08C73.2867 10.7467 74.4333 11.72 75.1 13C75.7933 14.2533 76.14 15.8533 76.14 17.8C76.14 21.16 75.0867 23.7733 72.98 25.64C70.9 27.5067 68.0067 28.44 64.3 28.44C62.8333 28.44 61.78 28.4 61.14 28.32V36.2L66.5 36.6V39H52.1V36.6L55.26 36.2V12.28ZM61.1 25.76C61.7133 25.8933 62.7533 25.96 64.22 25.96C66.0067 25.96 67.4333 25.3467 68.5 24.12C69.5933 22.8667 70.14 20.8 70.14 17.92C70.14 15.68 69.6467 14.0533 68.66 13.04C67.7 12 66.22 11.48 64.22 11.48C63.4733 11.48 62.7 11.5333 61.9 11.64C61.5267 11.6933 61.26 11.72 61.1 11.72V25.76ZM88.8253 39.44C85.3053 39.44 82.6786 38.4133 80.9453 36.36C79.2386 34.28 78.3853 31.4533 78.3853 27.88C78.3853 25.48 78.8253 23.4 79.7053 21.64C80.612 19.88 81.8786 18.5333 83.5053 17.6C85.132 16.6667 87.012 16.2 89.1453 16.2C91.812 16.2 93.8653 16.9067 95.3053 18.32C96.7453 19.7067 97.492 21.6933 97.5453 24.28C97.5453 26.04 97.4386 27.3467 97.2253 28.2H84.2253C84.332 30.6267 84.9053 32.52 85.9453 33.88C86.9853 35.2133 88.4653 35.88 90.3853 35.88C91.4253 35.88 92.492 35.7067 93.5853 35.36C94.7053 35.0133 95.5853 34.6 96.2253 34.12L97.2253 36.32C96.5053 37.0933 95.332 37.8133 93.7053 38.48C92.1053 39.12 90.4786 39.44 88.8253 39.44ZM91.9453 25.8C91.9986 25.0533 92.0253 24.48 92.0253 24.08C92.0253 20.5333 90.8386 18.76 88.4653 18.76C87.1586 18.76 86.1453 19.28 85.4253 20.32C84.7053 21.36 84.3053 23.1867 84.2253 25.8H91.9453ZM107.458 39.36C105.778 39.36 104.538 38.9733 103.738 38.2C102.938 37.4267 102.538 36.2 102.538 34.52V19.84H99.9375V17.76C100.151 17.68 100.538 17.5467 101.098 17.36C101.658 17.1467 102.084 16.9733 102.378 16.84C102.831 16.4933 103.218 15.8933 103.538 15.04C103.778 14.48 104.218 13.0933 104.858 10.88H108.058L108.218 16.76H114.338V19.84H108.258V31.08C108.258 32.5733 108.298 33.6267 108.378 34.24C108.458 34.8533 108.631 35.2533 108.898 35.44C109.164 35.6 109.631 35.68 110.298 35.68C110.964 35.68 111.658 35.6133 112.378 35.48C113.098 35.32 113.698 35.1333 114.178 34.92L114.938 37.16C114.191 37.72 113.098 38.2267 111.658 38.68C110.218 39.1333 108.818 39.36 107.458 39.36ZM126.546 11.92L120.826 12.12L119.266 20.84H115.906L116.586 9.28H142.386L142.866 20.84H139.706L138.146 12.12L132.506 11.92V36.2L138.106 36.6V39H121.426V36.6L126.546 36.2V11.92ZM150.302 13.12C149.342 13.12 148.582 12.84 148.022 12.28C147.462 11.72 147.182 11 147.182 10.12C147.182 9.10666 147.502 8.26666 148.142 7.6C148.782 6.93333 149.636 6.6 150.702 6.6C151.769 6.6 152.582 6.89333 153.142 7.48C153.702 8.04 153.982 8.74667 153.982 9.6C153.982 10.6667 153.662 11.52 153.022 12.16C152.382 12.8 151.489 13.12 150.342 13.12H150.302ZM148.182 20.56L145.342 19.8V17.12L152.662 16.24H152.742L153.862 17.04V36.28L156.542 36.6V39H145.382V36.6L148.182 36.24V20.56ZM161.649 20.56L159.089 19.84V17.08L165.729 16.24H165.849L166.849 17.04V18.6L166.809 19.56C167.743 18.68 168.956 17.92 170.449 17.28C171.943 16.64 173.449 16.32 174.969 16.32C176.596 16.32 177.863 16.6267 178.769 17.24C179.703 17.8267 180.369 18.76 180.769 20.04C181.169 21.32 181.369 23.0533 181.369 25.24V36.28L183.809 36.6V39H173.489V36.6L175.649 36.28V25.24C175.649 23.8533 175.556 22.7733 175.369 22C175.183 21.2 174.836 20.6267 174.329 20.28C173.849 19.9067 173.156 19.72 172.249 19.72C170.729 19.72 169.103 20.3733 167.369 21.68V36.24L169.769 36.6V39H159.329V36.6L161.649 36.24V20.56ZM194.996 39.44C193.343 39.44 191.863 39.0533 190.556 38.28C189.249 37.48 188.209 36.2533 187.436 34.6C186.663 32.9467 186.276 30.88 186.276 28.4C186.276 26.16 186.729 24.12 187.636 22.28C188.569 20.4133 189.929 18.9333 191.716 17.84C193.503 16.7467 195.649 16.2 198.156 16.2C199.169 16.2 200.129 16.3067 201.036 16.52V9.76L197.116 9.2V7L205.356 6.2H205.476L206.596 7.04V36.56H208.756V38.84C206.836 39.24 205.249 39.44 203.996 39.44C203.143 39.44 202.529 39.2933 202.156 39C201.809 38.7333 201.636 38.1867 201.636 37.36V36.24C200.943 37.1733 199.996 37.9467 198.796 38.56C197.596 39.1467 196.329 39.44 194.996 39.44ZM197.076 36.12C197.956 36.12 198.729 35.9467 199.396 35.6C200.089 35.2267 200.636 34.7867 201.036 34.28V19.72C200.849 19.4533 200.449 19.2267 199.836 19.04C199.249 18.8533 198.609 18.76 197.916 18.76C196.209 18.76 194.836 19.5067 193.796 21C192.783 22.4667 192.276 24.8267 192.276 28.08C192.276 30.8 192.716 32.8267 193.596 34.16C194.476 35.4667 195.636 36.12 197.076 36.12ZM221.755 39.44C218.235 39.44 215.608 38.4133 213.875 36.36C212.168 34.28 211.315 31.4533 211.315 27.88C211.315 25.48 211.755 23.4 212.635 21.64C213.542 19.88 214.808 18.5333 216.435 17.6C218.062 16.6667 219.942 16.2 222.075 16.2C224.742 16.2 226.795 16.9067 228.235 18.32C229.675 19.7067 230.422 21.6933 230.475 24.28C230.475 26.04 230.368 27.3467 230.155 28.2H217.155C217.262 30.6267 217.835 32.52 218.875 33.88C219.915 35.2133 221.395 35.88 223.315 35.88C224.355 35.88 225.422 35.7067 226.515 35.36C227.635 35.0133 228.515 34.6 229.155 34.12L230.155 36.32C229.435 37.0933 228.262 37.8133 226.635 38.48C225.035 39.12 223.408 39.44 221.755 39.44ZM224.875 25.8C224.928 25.0533 224.955 24.48 224.955 24.08C224.955 20.5333 223.768 18.76 221.395 18.76C220.088 18.76 219.075 19.28 218.355 20.32C217.635 21.36 217.235 23.1867 217.155 25.8H224.875ZM233.667 36.64L236.307 36.32V20.56L233.747 19.84V17.08L239.947 16.24H240.067L241.067 17.04V17.92L240.947 21.16H241.067C241.254 20.6267 241.694 19.9733 242.387 19.2C243.081 18.4 243.947 17.7067 244.987 17.12C246.054 16.5067 247.201 16.2 248.427 16.2C249.014 16.2 249.521 16.28 249.947 16.44V22.44C249.147 21.88 248.174 21.6 247.027 21.6C245.081 21.6 243.387 22.12 241.947 23.16V36.28L246.587 36.64V39H233.667V36.64Z" fill="#FB7070"/>
</svg>
