<svg width="32" height="32" viewBox="0 0 32 32" fill="none" xmlns="http://www.w3.org/2000/svg">
<path d="M20.275 12.4C23.2 12.4 25 8.125 25 5.425C25 3.175 23.875 0.475 21.625 0.475C18.7 0.475 16.9 4.75 16.9 7.45C16.9 9.7 18.025 12.4 20.275 12.4ZM11.725 12.4C13.975 12.4 15.1 9.7 15.1 7.45C15.1 4.525 13.3 0.25 10.375 0.25C8.12499 0.25 6.99999 2.95 6.99999 5.2C6.77499 8.125 8.57499 12.4 11.725 12.4ZM28.375 10.15C25.45 10.15 23.425 14.2 23.425 17.125C23.425 19.15 24.325 21.175 26.35 21.175C29.275 21.175 31.3 17.125 31.3 14.2C31.3 12.175 30.175 10.15 28.375 10.15ZM8.79999 17.125C8.79999 14.2 6.54999 10.15 3.84999 10.15C1.82499 10.15 0.924988 12.175 0.924988 14.2C0.924988 17.125 3.17499 21.175 5.87499 21.175C7.89999 21.175 8.79999 19.15 8.79999 17.125ZM16 16.675C11.5 16.675 5.42499 23.875 5.42499 28.825C5.42499 31.075 6.99999 31.75 8.79999 31.75C11.5 31.75 13.525 29.95 16 29.95C18.25 29.95 20.275 31.75 22.75 31.75C24.55 31.75 26.575 31.3 26.575 28.825C26.575 23.875 20.5 16.675 16 16.675Z" fill="#FB7070"/>
</svg>
